<?xml version="1.0" standalone="no"?>
<!DOCTYPE svg PUBLIC "-//W3C//DTD SVG 20010904//EN"
 "http://www.w3.org/TR/2001/REC-SVG-20010904/DTD/svg10.dtd">
<svg version="1.0" xmlns="http://www.w3.org/2000/svg"
 width="700.000000pt" height="700.000000pt" viewBox="0 0 700.000000 700.000000"
 preserveAspectRatio="xMidYMid meet">
<metadata>
Created by potrace 1.11, written by Peter Selinger 2001-2013
</metadata>
<g transform="translate(0.000000,700.000000) scale(0.100000,-0.100000)"
fill="#000000" stroke="none">
<path d="M3625 6344 c-55 -28 -80 -71 -77 -126 1 -16 25 -112 52 -215 27 -104
59 -224 70 -268 29 -110 48 -146 93 -171 50 -28 107 -19 150 25 52 52 46 92
-84 566 -11 39 -24 87 -29 107 -20 70 -113 114 -175 82z"/>
<path d="M4973 6324 c-18 -9 -38 -26 -46 -38 -7 -11 -40 -115 -71 -231 -32
-115 -66 -239 -76 -275 -27 -92 -28 -130 -2 -171 32 -53 84 -75 141 -59 70 19
78 35 166 358 90 328 91 343 35 397 -36 34 -101 43 -147 19z"/>
<path d="M2423 5663 c-22 -14 -44 -38 -50 -54 -12 -30 -9 -91 5 -115 11 -20
421 -433 446 -449 103 -67 231 40 187 157 -10 28 -425 449 -460 468 -43 22
-87 20 -128 -7z"/>
<path d="M6156 5648 c-34 -13 -440 -409 -462 -451 -47 -89 22 -193 124 -186
20 2 46 9 57 16 11 7 115 108 232 225 220 218 230 232 221 300 -6 43 -44 86
-85 97 -45 13 -49 13 -87 -1z"/>
<path d="M4220 5089 c-53 -6 -147 -24 -230 -44 -40 -9 -167 -59 -232 -91 -235
-116 -476 -351 -593 -576 -11 -21 -24 -38 -30 -38 -5 0 -38 9 -71 19 -279 88
-608 87 -899 -3 -286 -87 -525 -244 -732 -478 -37 -42 -163 -222 -163 -234 0
-4 -6 -15 -13 -23 -21 -25 -97 -199 -122 -281 -57 -181 -71 -281 -69 -516 l2
-171 -107 -6 c-106 -6 -132 -9 -206 -28 -56 -14 -173 -59 -215 -82 -51 -28
-104 -60 -110 -67 -3 -3 -23 -18 -45 -35 -57 -41 -134 -121 -182 -185 -141
-189 -203 -385 -198 -618 5 -180 22 -258 93 -412 111 -243 334 -439 596 -524
81 -27 117 -34 221 -44 39 -4 963 -7 2055 -6 l1985 1 102 22 c344 73 613 252
820 548 25 35 99 176 126 240 10 24 32 96 49 160 27 106 31 134 32 278 1 186
-5 248 -38 369 -43 156 -126 324 -219 445 -58 76 -182 197 -254 250 l-61 44
23 37 c63 101 128 266 159 410 113 522 -102 1077 -538 1387 -88 63 -271 157
-371 191 -155 53 -397 79 -565 61z"/>
<path d="M6575 4409 c-143 -37 -276 -77 -295 -88 -94 -53 -87 -175 12 -227 30
-15 62 -13 153 11 487 129 500 133 529 172 25 34 26 109 2 145 -21 32 -73 58
-113 57 -15 0 -145 -32 -288 -70z"/>
<path d="M6295 3267 c-32 -11 -85 -59 -86 -79 0 -7 -2 -22 -4 -33 -3 -11 0
-34 6 -51 20 -64 41 -74 357 -160 250 -69 301 -80 330 -72 144 40 128 221 -23
259 -26 6 -97 25 -310 84 -62 17 -193 51 -220 57 -11 3 -33 0 -50 -5z"/>
</g>
</svg>
